<?xml version="1.0" encoding="utf-8"?>
<!-- Generator: Adobe Illustrator 15.0.2, SVG Export Plug-In . SVG Version: 6.00 Build 0)  -->
<!DOCTYPE svg PUBLIC "-//W3C//DTD SVG 1.1//EN" "http://www.w3.org/Graphics/SVG/1.1/DTD/svg11.dtd">
<svg version="1.1" id="Layer_1" xmlns="http://www.w3.org/2000/svg" xmlns:xlink="http://www.w3.org/1999/xlink" x="0px" y="0px"
	 width="512px" height="672px" viewBox="0 0 512 672" enable-background="new 0 0 512 672" xml:space="preserve">
<path d="M448,224h-32v-64C416,71.68,344.312,0,256,0C167.68,0,96,71.68,96,160v64H64c-35.359,0-64,28.641-64,64v320
	c0,35.359,28.641,64,64,64h384c35.359,0,64-28.641,64-64V288C512,252.641,483.359,224,448,224z M256,512c-35.359,0-64-28.641-64-64
	s28.641-64,64-64s64,28.641,64,64S291.359,512,256,512z M355.203,224H156.797v-64c0-54.719,44.484-99.203,99.203-99.203
	s99.203,44.484,99.203,99.203V224z"/>
</svg>
